<mxfile host="app.diagrams.net" modified="2023-09-30T19:50:53.961Z" agent="Mozilla/5.0 (Windows NT 10.0; Win64; x64) AppleWebKit/537.36 (KHTML, like Gecko) Chrome/117.0.0.0 Safari/537.36" etag="NFA3JX6kpCGvBNarQ-jz" version="22.0.0" type="device">
  <diagram name="Page-1" id="Xy64M2kDRNxkvJS2-c4r">
    <mxGraphModel dx="1243" dy="589" grid="0" gridSize="10" guides="1" tooltips="1" connect="1" arrows="1" fold="1" page="1" pageScale="1" pageWidth="850" pageHeight="1100" math="0" shadow="0">
      <root>
        <mxCell id="0" />
        <mxCell id="1" parent="0" />
        <mxCell id="ijvSVpXvUt_B5qxLJNYE-1" value="Client" style="swimlane;whiteSpace=wrap;html=1;" parent="1" vertex="1">
          <mxGeometry x="40" y="220" width="90" height="120" as="geometry" />
        </mxCell>
        <mxCell id="ijvSVpXvUt_B5qxLJNYE-7" value="Client" style="swimlane;whiteSpace=wrap;html=1;" parent="ijvSVpXvUt_B5qxLJNYE-1" vertex="1">
          <mxGeometry y="-6" width="90" height="78" as="geometry" />
        </mxCell>
        <mxCell id="lje7u6UC5SYsEJy9Smvb-20" value="User" style="shape=umlActor;verticalLabelPosition=bottom;verticalAlign=top;html=1;outlineConnect=0;" vertex="1" parent="ijvSVpXvUt_B5qxLJNYE-7">
          <mxGeometry x="30" y="18" width="30" height="60" as="geometry" />
        </mxCell>
        <mxCell id="ijvSVpXvUt_B5qxLJNYE-2" value="Proxy Server" style="swimlane;whiteSpace=wrap;html=1;startSize=40;" parent="1" vertex="1">
          <mxGeometry x="230" y="170" width="95" height="170" as="geometry">
            <mxRectangle x="230" y="170" width="140" height="30" as="alternateBounds" />
          </mxGeometry>
        </mxCell>
        <mxCell id="ijvSVpXvUt_B5qxLJNYE-5" value="&amp;nbsp; &amp;nbsp; Forward Proxy" style="text;html=1;align=center;verticalAlign=middle;resizable=0;points=[];autosize=1;strokeColor=none;fillColor=none;" parent="ijvSVpXvUt_B5qxLJNYE-2" vertex="1">
          <mxGeometry x="-15" y="78" width="110" height="30" as="geometry" />
        </mxCell>
        <mxCell id="ijvSVpXvUt_B5qxLJNYE-12" value="Origin&amp;nbsp; server" style="swimlane;whiteSpace=wrap;html=1;startSize=23;" parent="1" vertex="1">
          <mxGeometry x="670" y="160" width="85" height="120" as="geometry">
            <mxRectangle x="230" y="170" width="140" height="30" as="alternateBounds" />
          </mxGeometry>
        </mxCell>
        <mxCell id="ijvSVpXvUt_B5qxLJNYE-13" value="Origin Server" style="text;html=1;align=center;verticalAlign=middle;resizable=0;points=[];autosize=1;strokeColor=none;fillColor=none;" parent="ijvSVpXvUt_B5qxLJNYE-12" vertex="1">
          <mxGeometry x="-5" y="78" width="90" height="30" as="geometry" />
        </mxCell>
        <mxCell id="lje7u6UC5SYsEJy9Smvb-1" value="" style="shape=flexArrow;endArrow=classic;startArrow=classic;html=1;rounded=0;entryX=0.002;entryY=0.173;entryDx=0;entryDy=0;entryPerimeter=0;exitX=1;exitY=0.5;exitDx=0;exitDy=0;" edge="1" parent="1" source="ijvSVpXvUt_B5qxLJNYE-7">
          <mxGeometry width="100" height="100" relative="1" as="geometry">
            <mxPoint x="140" y="270" as="sourcePoint" />
            <mxPoint x="240.1199999999999" y="253.19000000000005" as="targetPoint" />
          </mxGeometry>
        </mxCell>
        <mxCell id="lje7u6UC5SYsEJy9Smvb-3" value="" style="shape=flexArrow;endArrow=classic;startArrow=classic;html=1;rounded=0;exitX=1;exitY=0.5;exitDx=0;exitDy=0;" edge="1" parent="1">
          <mxGeometry width="100" height="100" relative="1" as="geometry">
            <mxPoint x="315" y="252" as="sourcePoint" />
            <mxPoint x="410" y="252" as="targetPoint" />
          </mxGeometry>
        </mxCell>
        <mxCell id="lje7u6UC5SYsEJy9Smvb-4" value="Origin&amp;nbsp; server" style="swimlane;whiteSpace=wrap;html=1;startSize=23;" vertex="1" parent="1">
          <mxGeometry x="670" y="330" width="85" height="120" as="geometry">
            <mxRectangle x="230" y="170" width="140" height="30" as="alternateBounds" />
          </mxGeometry>
        </mxCell>
        <mxCell id="lje7u6UC5SYsEJy9Smvb-5" value="Origin Server" style="text;html=1;align=center;verticalAlign=middle;resizable=0;points=[];autosize=1;strokeColor=none;fillColor=none;" vertex="1" parent="lje7u6UC5SYsEJy9Smvb-4">
          <mxGeometry x="-5" y="78" width="90" height="30" as="geometry" />
        </mxCell>
        <mxCell id="lje7u6UC5SYsEJy9Smvb-6" value="Origin&amp;nbsp; server" style="swimlane;whiteSpace=wrap;html=1;startSize=23;" vertex="1" parent="1">
          <mxGeometry x="670" width="85" height="120" as="geometry">
            <mxRectangle x="230" y="170" width="140" height="30" as="alternateBounds" />
          </mxGeometry>
        </mxCell>
        <mxCell id="lje7u6UC5SYsEJy9Smvb-7" value="Origin Server" style="text;html=1;align=center;verticalAlign=middle;resizable=0;points=[];autosize=1;strokeColor=none;fillColor=none;" vertex="1" parent="lje7u6UC5SYsEJy9Smvb-6">
          <mxGeometry x="-5" y="78" width="90" height="30" as="geometry" />
        </mxCell>
        <mxCell id="lje7u6UC5SYsEJy9Smvb-8" value="Proxy Server" style="swimlane;whiteSpace=wrap;html=1;startSize=23;" vertex="1" parent="1">
          <mxGeometry x="410" y="170" width="90" height="170" as="geometry">
            <mxRectangle x="230" y="170" width="140" height="30" as="alternateBounds" />
          </mxGeometry>
        </mxCell>
        <mxCell id="lje7u6UC5SYsEJy9Smvb-9" value="Reverse Proxy" style="text;html=1;align=center;verticalAlign=middle;resizable=0;points=[];autosize=1;strokeColor=none;fillColor=none;" vertex="1" parent="lje7u6UC5SYsEJy9Smvb-8">
          <mxGeometry x="-10" y="32" width="100" height="30" as="geometry" />
        </mxCell>
        <mxCell id="lje7u6UC5SYsEJy9Smvb-10" value="" style="shape=flexArrow;endArrow=classic;startArrow=classic;html=1;rounded=0;entryX=0;entryY=0.5;entryDx=0;entryDy=0;" edge="1" parent="1" target="lje7u6UC5SYsEJy9Smvb-6">
          <mxGeometry width="100" height="100" relative="1" as="geometry">
            <mxPoint x="500" y="240" as="sourcePoint" />
            <mxPoint x="600" y="140" as="targetPoint" />
          </mxGeometry>
        </mxCell>
        <mxCell id="lje7u6UC5SYsEJy9Smvb-11" value="" style="shape=flexArrow;endArrow=classic;startArrow=classic;html=1;rounded=0;entryX=0;entryY=0.5;entryDx=0;entryDy=0;" edge="1" parent="1" source="lje7u6UC5SYsEJy9Smvb-24">
          <mxGeometry width="100" height="100" relative="1" as="geometry">
            <mxPoint x="500" y="260" as="sourcePoint" />
            <mxPoint x="670" y="200" as="targetPoint" />
          </mxGeometry>
        </mxCell>
        <mxCell id="lje7u6UC5SYsEJy9Smvb-14" value="" style="shape=flexArrow;endArrow=classic;startArrow=classic;html=1;rounded=0;" edge="1" parent="1">
          <mxGeometry width="100" height="100" relative="1" as="geometry">
            <mxPoint x="500" y="280" as="sourcePoint" />
            <mxPoint x="670" y="400" as="targetPoint" />
          </mxGeometry>
        </mxCell>
        <mxCell id="lje7u6UC5SYsEJy9Smvb-24" value="ALB" style="rhombus;whiteSpace=wrap;html=1;" vertex="1" parent="1">
          <mxGeometry x="470" y="225" width="80" height="60" as="geometry" />
        </mxCell>
      </root>
    </mxGraphModel>
  </diagram>
</mxfile>
